<?xml version="1.0" encoding="utf-8"?>
<svg version="1.1" xmlns="http://www.w3.org/2000/svg" width="225" height="225" xmlns:bx="https://boxy-svg.com" viewBox="0 0 225 225"><defs><bx:export><bx:file format="svg"/></bx:export></defs><path d="M0 0 C16.2169754 13.81359631 28.45607011 34.32589072 30.375 55.8125 C31.70771535 81.61758835 24.851893 104.25807251 7.37890625 123.70703125 C-8.02550173 140.06948752 -29.36916004 148.97155855 -51.625 150.0390625 C-75.30128415 150.75177424 -97.02119234 141.11602006 -114.19873047 125.19140625 C-129.73123584 110.1747013 -138.30318097 88.62963468 -138.90844727 67.27172852 C-139.20061218 43.7978737 -130.17628925 22.10478488 -114.046875 5.11328125 C-103.26097783 -5.13332106 -89.19215166 -13.5996645 -74.625 -17.1875 C-73.82578125 -17.38988281 -73.0265625 -17.59226562 -72.203125 -17.80078125 C-46.44852066 -23.40126474 -20.52999262 -15.90715512 0 0 Z " fill="#FCFCFC" transform="translate(166.625,47.1875)"/><path d="M0 0 C16.2169754 13.81359631 28.45607011 34.32589072 30.375 55.8125 C31.70771535 81.61758835 24.851893 104.25807251 7.37890625 123.70703125 C-8.02550173 140.06948752 -29.36916004 148.97155855 -51.625 150.0390625 C-75.30128415 150.75177424 -97.02119234 141.11602006 -114.19873047 125.19140625 C-129.73123584 110.1747013 -138.30318097 88.62963468 -138.90844727 67.27172852 C-139.20061218 43.7978737 -130.17628925 22.10478488 -114.046875 5.11328125 C-103.26097783 -5.13332106 -89.19215166 -13.5996645 -74.625 -17.1875 C-73.82578125 -17.38988281 -73.0265625 -17.59226562 -72.203125 -17.80078125 C-46.44852066 -23.40126474 -20.52999262 -15.90715512 0 0 Z M-110.625 14.8125 C-126.40640617 34.91861844 -131.26948864 55.75390783 -128.35693359 81.14990234 C-125.05707762 99.842863 -111.86181918 117.15543529 -96.671875 127.87890625 C-78.44365215 139.44681691 -57.68862896 142.96928481 -36.33203125 139.19921875 C-17.15333598 134.18936395 -0.02628131 121.63332212 10.375 104.8125 C15.16547976 96.26205065 18.53548768 87.46626064 20.375 77.8125 C20.7153125 76.08 20.7153125 76.08 21.0625 74.3125 C23.04659749 52.09060813 16.5963493 33.51989348 3.25 16.02734375 C-9.04121842 1.40892773 -27.76233244 -7.9249034 -46.625 -10.1875 C-71.06750284 -11.49179578 -93.87335779 -3.38227355 -110.625 14.8125 Z " fill="#060606" transform="translate(166.625,47.1875)"/><path d="M0 0 C11.07131036 2.7573266 22.13536787 5.54171682 33.1875 8.375 C33.94237701 8.56842987 34.69725403 8.76185974 35.4750061 8.96115112 C47.71114744 12.10197453 59.88632076 15.41232496 72 19 C71.01 23.455 71.01 23.455 70 28 C65.43463107 27.30789077 60.99628188 26.30415989 56.53125 25.14453125 C55.82185272 24.96231522 55.11245544 24.78009918 54.38156128 24.59236145 C52.08696051 24.00192771 49.79342228 23.4074936 47.5 22.8125 C45.91748184 22.40347779 44.3349623 21.99446089 42.75244141 21.58544922 C33.94916281 19.30589265 25.15198995 17.00405085 16.375 14.625 C15.53775391 14.39917236 14.70050781 14.17334473 13.83789062 13.94067383 C8.49063107 12.47479094 3.24747509 10.79105437 -2 9 C-1.34 6.03 -0.68 3.06 0 0 Z " fill="#060606" transform="translate(71,126)"/><path d="M0 0 C8.97698816 1.6732256 17.78922682 3.90272484 26.625 6.1875 C27.77403809 6.4837175 27.77403809 6.4837175 28.94628906 6.78591919 C38.99928785 9.38180022 49.02521712 12.05359177 59 14.9375 C59.98307129 15.21940186 60.96614258 15.50130371 61.97900391 15.79174805 C62.87280762 16.05511963 63.76661133 16.31849121 64.6875 16.58984375 C65.45449219 16.81534912 66.22148437 17.04085449 67.01171875 17.27319336 C69 18 69 18 72 20 C71.34 22.64 70.68 25.28 70 28 C69.07703125 27.76925781 68.1540625 27.53851563 67.203125 27.30078125 C66.58445557 27.14617432 65.96578613 26.99156738 65.32836914 26.83227539 C63.91598256 26.47905431 62.50371455 26.12535886 61.09155273 25.77124023 C57.09098804 24.76883752 53.08852199 23.77534221 49.08203125 22.796875 C40.45848748 20.68166615 31.90281681 18.44843041 23.40087891 15.88623047 C14.99456403 13.3661318 6.49666699 11.19178567 -2 9 C-1.34 6.03 -0.68 3.06 0 0 Z " fill="#050505" transform="translate(84,71)"/><path d="M0 0 C9.80909861 1.49067086 19.26460844 4.1180366 28.8125 6.75 C31.28590828 7.42837139 33.75954131 8.10591893 36.23318481 8.78343201 C37.86476861 9.23051688 39.49617911 9.67823465 41.12741089 10.12660217 C45.83473261 11.41802789 50.54950133 12.67194927 55.27734375 13.88671875 C56.30690186 14.15452148 57.33645996 14.42232422 58.3972168 14.69824219 C60.25162808 15.17878625 62.10848571 15.65002013 63.96801758 16.11035156 C66.00602676 16.64516723 68.00967035 17.30855431 70 18 C71.25541557 21.76624671 70.37061958 23.37188934 69 27 C63.98286121 26.36483689 59.15393465 25.38399887 54.2578125 24.109375 C53.53117401 23.92288391 52.80453552 23.73639282 52.05587769 23.54425049 C50.52083261 23.14931878 48.98626222 22.75253788 47.45214844 22.35400391 C45.16726585 21.76096997 42.88067898 21.1749296 40.59375 20.58984375 C31.58157697 18.27040265 22.63726929 15.77267102 13.72241211 13.10375977 C8.83630463 11.65494413 3.92531025 10.30845175 -1 9 C-2.07637127 5.12506344 -1.94566951 3.47547073 0 0 Z " fill="#050505" transform="translate(78,99)"/><path d="M0 0 C1.52519276 0.08937803 3.04681929 0.24537146 4.5625 0.4375 C5.38878906 0.53933594 6.21507812 0.64117187 7.06640625 0.74609375 C7.70449219 0.82988281 8.34257812 0.91367187 9 1 C7.07289294 12.52164009 7.07289294 12.52164009 5 18 C0.545 17.01 0.545 17.01 -4 16 C-3.52546129 13.51986371 -3.04561015 11.04096744 -2.5625 8.5625 C-2.42779297 7.85544922 -2.29308594 7.14839844 -2.15429688 6.41992188 C-1.11328125 1.11328125 -1.11328125 1.11328125 0 0 Z " fill="#090909" transform="translate(122,51)"/><path d="M0 0 C4.455 0.99 4.455 0.99 9 2 C7.68 7.28 6.36 12.56 5 18 C2.03 17.67 -0.94 17.34 -4 17 C-2.07289294 5.47835991 -2.07289294 5.47835991 0 0 Z " fill="#050505" transform="translate(98,156)"/></svg>