<?xml version="1.0" encoding="utf-8"?>
<!-- Generator: Adobe Illustrator 22.0.1, SVG Export Plug-In . SVG Version: 6.00 Build 0)  -->
<svg version="1.1" id="Satoshi" xmlns="http://www.w3.org/2000/svg" xmlns:xlink="http://www.w3.org/1999/xlink" x="0px" y="0px"
	 viewBox="0 0 700 1000" style="enable-background:new 0 0 700 1000;" xml:space="preserve">
<path d="M642.5,635c0,50.6-16.8,97.4-44.9,135c-12.9,17-28,32.2-45.1,45.1c-26.2,19.6-56.8,33.7-90,40.4c-14.5,3-29.6,4.5-45,4.5v90
	h-90v-90h-45v90h-90v-90h-135v-90h360c15.8,0,30.9-2.7,45-7.7c52.4-18.5,90-68.5,90-127.3s-37.6-108.8-90-127.3
	c-14.1-5-29.2-7.7-45-7.7h-315V230h-45v-90h135V50h90v90h45V50h90v95.7c15.9,4.1,31,10.4,45,18.5c27.3,15.8,50.1,38.6,65.9,65.9
	c15.4,26.5,24.1,57.2,24.1,90h-90c0-33.3-18.1-62.4-45-77.9c-13.2-7.7-28.6-12.1-45-12.1h-180v180h225c15.4,0,30.5,1.5,45,4.5
	c18,3.7,35.1,9.5,51.3,17.1c13.8,6.5,26.7,14.3,38.8,23.3c17,12.9,32.2,28,45.1,45.1C625.7,537.6,642.5,584.4,642.5,635z"/>
</svg>
